<svg width="467" height="395" viewBox="0 0 467 395" fill="none" xmlns="http://www.w3.org/2000/svg">
<g opacity="0.22" filter="url(#filter0_f_384_39384)">
<circle cx="269.508" cy="197.5" r="178.5" fill="#FFDBD0"/>
</g>
<path d="M1.50781 42C10.0078 104.5 72.8078 210.5 230.008 226.5C387.208 242.5 314.841 270.167 254.508 284.5L394.008 342.5" stroke="#D8C2BB" stroke-width="1.5"/>
<path d="M240.998 148.403C265.467 147.765 297.649 156.825 310.682 161.436L257.222 279.26C207.646 263.089 186.386 257.096 181.953 256.121L240.998 148.403Z" fill="#FFDBD0"/>
<path d="M310.686 161.437C318.931 151.685 344.517 124.84 368.135 113.562L329.038 219.95C313.563 231.197 265.759 263.674 258.055 277.173L257.227 278.995C257.403 278.435 257.682 277.826 258.055 277.173L310.686 161.437Z" fill="#FFB59D"/>
<path d="M247.195 165.625L249.852 185.813L260.477 189L232.852 235.219H256.758L262.602 267.094L302.977 206H317.852L356.102 131.094" stroke="#77574D" stroke-width="0.945333"/>
<circle cx="151.57" cy="176.25" r="80.0402" stroke="#F3E2A7" stroke-width="1.41983"/>
<path fill-rule="evenodd" clip-rule="evenodd" d="M158.408 154.697C158.966 157.112 159.128 159.414 158.946 161.312C160.46 160.498 162.323 159.797 164.387 159.321C170.112 157.999 175.209 158.9 175.77 161.333C176.332 163.766 172.146 166.81 166.421 168.132C164.547 168.565 162.74 168.759 161.138 168.74C161.774 170.086 162.32 171.652 162.713 173.355C164.034 179.08 163.134 184.177 160.7 184.738C158.267 185.3 155.223 181.114 153.902 175.389C153.479 173.559 153.284 171.792 153.293 170.218C151.683 171.181 149.59 172.015 147.238 172.558C141.513 173.879 136.416 172.978 135.855 170.545C135.293 168.112 139.479 165.068 145.204 163.747C147.795 163.148 150.257 163.005 152.229 163.254C151.143 161.591 150.194 159.318 149.597 156.731C148.275 151.006 149.176 145.91 151.609 145.348C154.042 144.786 157.086 148.972 158.408 154.697Z" fill="#6A5E2F"/>
<circle cx="178.773" cy="237.503" r="47.1644" stroke="#FFDBD0" stroke-width="1.41983"/>
<path fill-rule="evenodd" clip-rule="evenodd" d="M346.206 242.107C345.771 243.993 345.096 245.665 344.318 246.934C345.659 246.88 347.207 247.026 348.818 247.398C353.284 248.429 356.549 250.804 356.111 252.702C355.673 254.6 351.697 255.303 347.231 254.272C345.768 253.934 344.434 253.452 343.317 252.89C343.303 254.051 343.149 255.335 342.843 256.662C341.812 261.128 339.437 264.393 337.539 263.955C335.641 263.517 334.939 259.541 335.97 255.075C336.299 253.648 336.766 252.344 337.31 251.244C335.854 251.367 334.105 251.235 332.274 250.813C327.808 249.782 324.543 247.407 324.981 245.509C325.42 243.611 329.395 242.908 333.861 243.939C335.878 244.405 337.651 245.145 338.947 245.991C338.755 244.455 338.867 242.538 339.333 240.52C340.364 236.055 342.738 232.789 344.636 233.228C346.534 233.666 347.237 237.641 346.206 242.107Z" fill="#F3E2A7"/>
<circle cx="304.039" cy="275.596" r="23.5513" stroke="#E8D6D1" stroke-width="0.709916"/>
<path d="M233.502 235.192C233.664 235.734 232.912 236.053 232.636 235.56L220.64 214.199C220.502 213.954 220.608 213.642 220.867 213.532L225.831 211.425C226.091 211.315 226.388 211.455 226.469 211.725L233.502 235.192Z" fill="#FFFBFF"/>
<path fill-rule="evenodd" clip-rule="evenodd" d="M224.987 170.035C225.134 170.382 225.126 170.783 224.978 171.227C224.977 171.26 224.975 171.294 224.971 171.327L222.389 192.354L239.299 205.097C239.321 205.113 239.343 205.131 239.363 205.149C239.796 205.352 240.097 205.628 240.247 205.98C241.28 208.414 234.664 213.551 225.469 217.453C216.275 221.356 207.983 222.547 206.95 220.113C206.803 219.767 206.811 219.366 206.959 218.921C206.96 218.888 206.963 218.855 206.967 218.821L209.548 197.794L192.638 185.052C192.616 185.035 192.595 185.018 192.575 184.999C192.141 184.796 191.84 184.52 191.691 184.169C190.658 181.735 197.274 176.598 206.468 172.695C215.663 168.792 223.954 167.601 224.987 170.035Z" fill="#D2795A"/>
<defs>
<filter id="filter0_f_384_39384" x="72.1011" y="0.0933304" width="394.813" height="394.813" filterUnits="userSpaceOnUse" color-interpolation-filters="sRGB">
<feFlood flood-opacity="0" result="BackgroundImageFix"/>
<feBlend mode="normal" in="SourceGraphic" in2="BackgroundImageFix" result="shape"/>
<feGaussianBlur stdDeviation="9.45333" result="effect1_foregroundBlur_384_39384"/>
</filter>
</defs>
</svg>
