<svg width="297" height="164" viewBox="0 0 297 164" fill="none" xmlns="http://www.w3.org/2000/svg">
<g opacity="0.22" filter="url(#filter0_f_475_42421)">
<ellipse cx="148.402" cy="103.137" rx="132.598" ry="44.9206" fill="#FFDBD0"/>
</g>
<g opacity="0.22" filter="url(#filter1_f_475_42421)">
<circle cx="174.555" cy="49.5571" r="33.5552" fill="#F3E2A7"/>
</g>
<path d="M210.828 91.1415L202.47 60.4961L165.695 106.186L210.828 91.1415Z" fill="#77574D"/>
<path d="M209.741 58.7559L165.902 106.834L241.672 58.7559H209.741Z" fill="#FFDBD0"/>
<path d="M165.129 106.745L202.692 59.2988L182.668 65.7934L165.129 106.745Z" fill="#FFB59D"/>
<path fill-rule="evenodd" clip-rule="evenodd" d="M221.5 97.5191C221.264 98.5448 220.896 99.4539 220.474 100.144C221.201 100.115 222.041 100.194 222.916 100.396C225.343 100.957 227.117 102.247 226.879 103.279C226.641 104.31 224.48 104.692 222.053 104.132C221.26 103.949 220.536 103.688 219.93 103.383C219.922 104.013 219.839 104.711 219.672 105.431C219.112 107.858 217.821 109.633 216.79 109.395C215.758 109.157 215.376 106.996 215.937 104.569C216.116 103.794 216.369 103.085 216.665 102.487C215.873 102.554 214.923 102.483 213.928 102.253C211.501 101.693 209.726 100.402 209.965 99.3706C210.203 98.339 212.363 97.957 214.791 98.5174C215.887 98.7706 216.851 99.1729 217.556 99.633C217.451 98.7975 217.511 97.7543 217.765 96.6567C218.325 94.2295 219.616 92.4549 220.647 92.693C221.679 92.9312 222.061 95.0919 221.5 97.5191Z" fill="#F3E2A7"/>
<path fill-rule="evenodd" clip-rule="evenodd" d="M170.809 49.9706C171.082 50.9892 171.185 51.966 171.135 52.7746C171.765 52.4055 172.546 52.0799 173.417 51.8468C175.823 51.2021 177.995 51.5084 178.269 52.531C178.544 53.5536 176.815 54.9053 174.409 55.55C173.618 55.762 172.852 55.8712 172.171 55.8859C172.459 56.4455 172.712 57.0992 172.903 57.8124C173.548 60.2185 173.242 62.3913 172.219 62.6653C171.196 62.9393 169.845 61.2108 169.2 58.8046C168.995 58.0394 168.886 57.2977 168.866 56.6332C168.2 57.061 167.331 57.4414 166.35 57.7043C163.944 58.3491 161.771 58.0427 161.497 57.0201C161.223 55.9975 162.952 54.6458 165.358 54.0011C166.443 53.7104 167.48 53.613 168.318 53.6875C167.833 52.9992 167.398 52.0502 167.106 50.9629C166.461 48.5567 166.768 46.384 167.79 46.11C168.813 45.8359 170.165 47.5644 170.809 49.9706Z" fill="#FFB4AB"/>
<path fill-rule="evenodd" clip-rule="evenodd" d="M173.835 52.2751C173.245 53.1491 172.576 53.8671 171.933 54.3598C172.622 54.5935 173.377 54.9686 174.121 55.47C176.186 56.863 177.38 58.7038 176.788 59.5815C176.196 60.4591 174.042 60.0414 171.977 58.6485C171.301 58.1923 170.718 57.6882 170.26 57.1856C170.027 57.7696 169.7 58.3885 169.288 58.9997C167.895 61.0649 166.054 62.2591 165.177 61.6671C164.299 61.0751 164.717 58.921 166.11 56.8558C166.554 56.1965 167.045 55.626 167.535 55.174C166.774 54.9524 165.915 54.546 165.07 53.9766C163.005 52.5836 161.811 50.7429 162.403 49.8652C162.995 48.9875 165.149 49.4052 167.214 50.7982C168.147 51.4275 168.903 52.1483 169.396 52.8304C169.598 52.0138 170.028 51.0634 170.657 50.1312C172.05 48.066 173.89 46.8718 174.768 47.4638C175.646 48.0558 175.228 50.2099 173.835 52.2751Z" fill="#FFB4AB"/>
<defs>
<filter id="filter0_f_475_42421" x="0.562799" y="42.9749" width="295.679" height="120.326" filterUnits="userSpaceOnUse" color-interpolation-filters="sRGB">
<feFlood flood-opacity="0" result="BackgroundImageFix"/>
<feBlend mode="normal" in="SourceGraphic" in2="BackgroundImageFix" result="shape"/>
<feGaussianBlur stdDeviation="7.62094" result="effect1_foregroundBlur_475_42421"/>
</filter>
<filter id="filter1_f_475_42421" x="125.758" y="0.760064" width="97.5932" height="97.5951" filterUnits="userSpaceOnUse" color-interpolation-filters="sRGB">
<feFlood flood-opacity="0" result="BackgroundImageFix"/>
<feBlend mode="normal" in="SourceGraphic" in2="BackgroundImageFix" result="shape"/>
<feGaussianBlur stdDeviation="7.62094" result="effect1_foregroundBlur_475_42421"/>
</filter>
</defs>
</svg>
